<svg width="43" height="34" viewBox="0 0 43 34" fill="none" xmlns="http://www.w3.org/2000/svg">
<path d="M41.8722 1.10761C41.1204 0.369064 40.2164 0 39.1608 0H3.83937C2.78359 0 1.8796 0.369064 1.12772 1.10761C0.375768 1.84598 0 2.73377 0 3.77088V29.4125C0 30.4497 0.375768 31.3368 1.12772 32.0752C1.87951 32.8142 2.78351 33.1831 3.83937 33.1831H39.1609C40.2165 33.1831 41.1204 32.8142 41.8723 32.0752C42.6244 31.3368 43 30.4493 43 29.4125V3.77088C42.9999 2.73377 42.6244 1.84598 41.8722 1.10761ZM39.9282 29.4119C39.9282 29.6162 39.8523 29.7929 39.7001 29.9422C39.548 30.0916 39.3682 30.1655 39.1605 30.1655H3.83912C3.63119 30.1655 3.45116 30.0916 3.29929 29.9422C3.14726 29.7929 3.07136 29.6162 3.07136 29.4119V11.3122C3.5832 11.8778 4.13513 12.3964 4.72706 12.8676C9.0144 16.1042 12.4217 18.7593 14.9493 20.8334C15.7651 21.5091 16.4291 22.0353 16.9409 22.4125C17.4527 22.7898 18.1446 23.1707 19.0163 23.5554C19.8881 23.9407 20.7081 24.1325 21.4759 24.1325H21.5H21.5239C22.2916 24.1325 23.1119 23.9407 23.9833 23.5554C24.8554 23.1707 25.5477 22.7899 26.0593 22.4125C26.5711 22.0353 27.2351 21.5091 28.0511 20.8334C30.5786 18.7593 33.9855 16.1042 38.273 12.8676C38.865 12.3965 39.4171 11.8778 39.9282 11.3122V29.4119ZM39.9282 4.38345V4.64265C39.9282 5.56956 39.5567 6.60271 38.8128 7.74168C38.069 8.88066 37.2648 9.78817 36.4015 10.4636C33.3137 12.8521 30.1067 15.3421 26.7787 17.9345C26.6829 18.013 26.4027 18.2446 25.9386 18.6294C25.4751 19.0147 25.107 19.3096 24.835 19.5136C24.5626 19.7182 24.2071 19.9655 23.7673 20.2559C23.3273 20.5463 22.9234 20.7628 22.5556 20.904C22.1877 21.0449 21.8437 21.1155 21.5239 21.1155H21.5H21.4759C21.156 21.1155 20.8124 21.0449 20.4443 20.904C20.0764 20.7628 19.6723 20.5463 19.2326 20.2559C18.7929 19.9655 18.4369 19.7181 18.1649 19.5136C17.8931 19.3096 17.525 19.0147 17.0613 18.6294C16.5973 18.2446 16.3171 18.013 16.2212 17.9345C12.8939 15.342 9.68668 12.8521 6.59909 10.4636C4.24741 8.64127 3.07178 6.41005 3.07178 3.77047C3.07178 3.56641 3.14768 3.38951 3.29971 3.24044C3.45175 3.09111 3.63161 3.01641 3.83954 3.01641H39.161C39.2888 3.08698 39.4009 3.10663 39.497 3.07543C39.593 3.04365 39.6649 3.10275 39.7126 3.25191C39.7606 3.40124 39.8047 3.47181 39.8446 3.46405C39.8847 3.45613 39.9088 3.55428 39.9168 3.75883C39.9243 3.96296 39.9283 4.06573 39.9283 4.06573V4.38345H39.9282Z" fill="black"/>
</svg>
