<svg width="40" height="33" viewBox="0 0 40 33" fill="none" xmlns="http://www.w3.org/2000/svg">
<path d="M13.8464 0H4.61547C3.33324 0 2.24358 0.43755 1.34596 1.3124C0.448766 2.18742 0 3.24986 0 4.50012V13.5C0 14.7502 0.448513 15.8125 1.34596 16.6873C2.24349 17.5621 3.33349 17.9998 4.61547 17.9998H10.0001C10.6409 17.9998 11.1859 18.2187 11.6346 18.6561C12.0834 19.0932 12.3077 19.6247 12.3077 20.25V20.9996C12.3077 22.656 11.7066 24.0696 10.5048 25.2417C9.30292 26.4133 7.85272 26.9992 6.15373 26.9992H4.61547C4.19853 26.9992 3.83808 27.1481 3.53346 27.4448C3.22909 27.7414 3.07678 28.0931 3.07678 28.4994V31.4998C3.07678 31.9054 3.22909 32.2577 3.53346 32.5545C3.83834 32.8511 4.19844 33 4.61547 33H6.15381C7.82065 33 9.4112 32.6831 10.9257 32.0505C12.4402 31.4178 13.7502 30.5621 14.856 29.4839C15.9616 28.4056 16.8391 27.1286 17.4881 25.6519C18.1369 24.1754 18.4615 22.6246 18.4615 20.9997V4.49979C18.4615 3.24953 18.0128 2.18718 17.1155 1.31232C16.2182 0.437468 15.1283 0 13.8464 0Z" fill="#2D2D2D"/>
<path d="M38.6535 1.3124C37.7563 0.43755 36.6666 0 35.3844 0H26.1538C24.8716 0 23.7819 0.43755 22.8846 1.3124C21.9874 2.18751 21.5388 3.24986 21.5388 4.50012V13.5C21.5388 14.7502 21.9874 15.8125 22.8846 16.6873C23.7819 17.5621 24.8716 17.9998 26.1538 17.9998H31.5384C32.1792 17.9998 32.7246 18.2187 33.1733 18.6561C33.6216 19.0935 33.8464 19.6247 33.8464 20.25V20.9996C33.8464 22.656 33.2453 24.0696 32.0432 25.2417C30.8414 26.4133 29.3915 26.9992 27.6924 26.9992H26.1538C25.7372 26.9992 25.3764 27.1481 25.0721 27.4448C24.7676 27.7414 24.6151 28.0931 24.6151 28.4994V31.4998C24.6151 31.9054 24.7676 32.2577 25.0721 32.5545C25.3763 32.8511 25.7371 33 26.1538 33H27.6924C29.359 33 30.9494 32.6831 32.4641 32.0505C33.9783 31.4178 35.2881 30.5621 36.3941 29.4839C37.4999 28.4056 38.3779 27.1283 39.0264 25.6519C39.6753 24.1757 40 22.6246 40 20.9997V4.49979C39.9998 3.24953 39.5514 2.18718 38.6535 1.3124Z" fill="#2D2D2D"/>
</svg>
