<svg width="43" height="30" viewBox="0 0 43 30" fill="none" xmlns="http://www.w3.org/2000/svg">
<path d="M26.8108 0.404655L25.3535 0.033193C25.166 -0.0249675 24.9812 -0.00667724 24.8015 0.0879101C24.6213 0.182574 24.4996 0.324685 24.437 0.514012L15.6724 28.7209C15.6098 28.9103 15.6294 29.089 15.7312 29.2562C15.833 29.4238 15.9855 29.5367 16.1895 29.5949L17.6463 29.9665C17.8343 30.0251 18.0184 30.0067 18.1985 29.912C18.3788 29.8169 18.5003 29.6752 18.5627 29.4862L27.3276 1.27882C27.3901 1.08949 27.3707 0.910881 27.2687 0.74321C27.1668 0.575616 27.0145 0.462739 26.8108 0.404655Z" fill="black"/>
<path d="M13.6758 5.91092C13.6758 5.72159 13.5974 5.55392 13.4408 5.40837L12.2657 4.31587C12.1091 4.17024 11.9289 4.09723 11.7253 4.09723C11.5217 4.09723 11.3413 4.17031 11.1848 4.31587L0.235054 14.4973C0.0781866 14.643 0 14.8105 0 14.9999C0 15.1892 0.0784335 15.3568 0.235054 15.5024L11.1847 25.6838C11.3413 25.8297 11.5212 25.9022 11.7252 25.9022C11.9291 25.9022 12.1091 25.8294 12.2657 25.6838L13.4407 24.5919C13.5973 24.4464 13.6757 24.2787 13.6757 24.0891C13.6757 23.9 13.5973 23.7324 13.4407 23.5869L4.20619 14.9999L13.4408 6.41347C13.5976 6.26792 13.6758 6.10025 13.6758 5.91092Z" fill="black"/>
<path d="M42.7651 14.4971L31.8151 4.31565C31.6586 4.1701 31.4782 4.09702 31.275 4.09702C31.071 4.09702 30.8914 4.1701 30.7342 4.31565L29.5597 5.40808C29.4032 5.55371 29.3251 5.72107 29.3251 5.91063C29.3251 6.10019 29.4031 6.26763 29.5597 6.41318L38.7945 14.9998L29.5597 23.5869C29.4032 23.7325 29.3251 23.9001 29.3251 24.0892C29.3251 24.2788 29.4031 24.4464 29.5597 24.5919L30.7342 25.6838C30.8914 25.8297 31.0711 25.9022 31.275 25.9022C31.4783 25.9022 31.6586 25.8295 31.8151 25.6838L42.7651 15.5024C42.9217 15.3569 43 15.189 43 14.9997C43 14.8103 42.9217 14.6427 42.7651 14.4971Z" fill="black"/>
</svg>
