<svg width="32" height="26" viewBox="0 0 32 26" fill="none" xmlns="http://www.w3.org/2000/svg">
<path d="M4.6875 26H27.3125C29.8972 26 32 24.2915 32 22.1914V3.80859C32 1.70851 29.8972 0 27.3125 0H4.6875C2.10278 0 0 1.70851 0 3.80859V22.1914C0 24.2915 2.10278 26 4.6875 26ZM1.875 3.80859C1.875 2.54858 3.13672 1.52344 4.6875 1.52344H27.3125C28.8633 1.52344 30.125 2.54858 30.125 3.80859V22.1914C30.125 23.4514 28.8633 24.4766 27.3125 24.4766H4.6875C3.13672 24.4766 1.875 23.4514 1.875 22.1914V3.80859Z" fill="#D2D2D2"/>
<path d="M16 19.8555C20.6523 19.8555 24.4375 16.78 24.4375 13C24.4375 9.21997 20.6523 6.14453 16 6.14453C11.3477 6.14453 7.5625 9.21997 7.5625 13C7.5625 16.78 11.3477 19.8555 16 19.8555ZM16 7.66797C19.6187 7.66797 22.5625 10.0598 22.5625 13C22.5625 15.9402 19.6187 18.332 16 18.332C12.3813 18.332 9.4375 15.9402 9.4375 13C9.4375 10.0598 12.3813 7.66797 16 7.66797Z" fill="#D2D2D2"/>
<path d="M25.375 7.66797C26.9258 7.66797 28.1875 6.64282 28.1875 5.38281C28.1875 4.1228 26.9258 3.09766 25.375 3.09766C23.8242 3.09766 22.5625 4.1228 22.5625 5.38281C22.5625 6.64282 23.8242 7.66797 25.375 7.66797ZM25.375 4.62109C25.8918 4.62109 26.3125 4.96288 26.3125 5.38281C26.3125 5.80275 25.8918 6.14453 25.375 6.14453C24.8582 6.14453 24.4375 5.80275 24.4375 5.38281C24.4375 4.96288 24.8582 4.62109 25.375 4.62109Z" fill="#D2D2D2"/>
</svg>
