<svg width="32" height="26" viewBox="0 0 32 26" fill="none" xmlns="http://www.w3.org/2000/svg">
<path d="M27.3125 0H4.6875C2.10278 0 0 1.70851 0 3.80859V22.1914C0 24.2915 2.10278 26 4.6875 26H27.3125C29.8972 26 32 24.2915 32 22.1914V3.80859C32 1.70851 29.8972 0 27.3125 0ZM30.125 22.1914C30.125 23.4514 28.8633 24.4766 27.3125 24.4766H4.6875C3.13672 24.4766 1.875 23.4514 1.875 22.1914V3.80859C1.875 2.54858 3.13672 1.52344 4.6875 1.52344H27.3125C28.8633 1.52344 30.125 2.54858 30.125 3.80859V22.1914Z" fill="#D2D2D2"/>
<path d="M5.6875 21.4297H11.3125V10.6641H5.6875V21.4297ZM7.5625 12.1875H9.4375V19.9062H7.5625V12.1875Z" fill="#D2D2D2"/>
<path d="M20.6929 10.6641C20.6912 10.6641 20.6892 10.6641 20.6875 10.6641C20.0393 10.6641 19.408 10.7521 18.8125 10.9231V10.6641H13.1875V21.4297H18.8125V15.9961C18.8125 15.5762 19.2332 15.2344 19.75 15.2344C20.2668 15.2344 20.6875 15.5762 20.6875 15.9961V21.4297H26.3125V15.4724C26.3125 13.0071 23.8511 10.6664 20.6929 10.6641ZM24.4375 19.9062H22.5625V15.9961C22.5625 14.7361 21.3008 13.7109 19.75 13.7109C18.1992 13.7109 16.9377 14.7361 16.9375 15.9959V19.9062H15.0625V12.1875H16.9375V13.7119L18.438 12.7963C19.0906 12.398 19.8684 12.1875 20.6875 12.1875H20.6912C22.6868 12.1891 24.4375 13.724 24.4375 15.4724V19.9062Z" fill="#D2D2D2"/>
<path d="M5.6875 9.14062H11.3125V4.57031H5.6875V9.14062ZM7.5625 6.09375H9.4375V7.61719H7.5625V6.09375Z" fill="#D2D2D2"/>
</svg>
