<svg width="39" height="26" viewBox="0 0 39 26" fill="none" xmlns="http://www.w3.org/2000/svg">
<path d="M5.71289 26H33.2871C36.4372 26 39 23.757 39 21V5C39 2.24297 36.4372 0 33.2871 0H5.71289C2.56277 0 0 2.24297 0 5V21C0 23.757 2.56277 26 5.71289 26ZM2.28516 5C2.28516 3.34583 3.82288 2 5.71289 2H33.2871C35.1771 2 36.7148 3.34583 36.7148 5V21C36.7148 22.6542 35.1771 24 33.2871 24H5.71289C3.82288 24 2.28516 22.6542 2.28516 21V5Z" fill="#D2D2D2"/>
<path d="M14 6V19.5932L30.327 12.6852L14 6ZM16.7136 9.39896L24.8093 12.7138L16.7136 16.1391V9.39896Z" fill="#D2D2D2"/>
</svg>
