<svg width="43" height="45" viewBox="0 0 43 45" fill="none" xmlns="http://www.w3.org/2000/svg">
<path d="M42.9759 18.7335C42.9602 17.8296 42.8918 16.6867 42.7722 15.3059C42.652 13.9243 42.4799 12.6896 42.2562 11.6017C42.0002 10.3797 41.4442 9.35004 40.5886 8.51297C39.7329 7.67573 38.7369 7.1904 37.6008 7.05627C34.0492 6.63804 28.6823 6.42871 21.4999 6.42871C14.3174 6.42871 8.95045 6.63804 5.3991 7.05627C4.26314 7.19031 3.27115 7.67573 2.42354 8.51297C1.57561 9.34977 1.02368 10.3795 0.767674 11.6017C0.527975 12.6899 0.347781 13.9246 0.227848 15.3059C0.108083 16.6867 0.0400058 17.8291 0.0241211 18.7335C0.0079003 19.6375 0 20.8929 0 22.5002C0 24.1073 0.0079003 25.3632 0.0242052 26.267C0.0400898 27.1715 0.108167 28.3138 0.227932 29.6945C0.347865 31.076 0.519907 32.3107 0.743889 33.3988C0.999892 34.6211 1.55569 35.6506 2.41153 36.4873C3.26753 37.3244 4.26356 37.8098 5.39918 37.9438C8.95054 38.3625 14.3172 38.5718 21.5 38.5718C28.6831 38.5718 34.0493 38.3625 37.6009 37.9438C38.737 37.8099 39.7286 37.3244 40.5765 36.4873C41.4245 35.6505 41.9761 34.6205 42.2321 33.3988C42.4719 32.3107 42.652 31.076 42.7722 29.6945C42.8918 28.3139 42.9597 27.171 42.9759 26.267C42.9919 25.3632 43 24.1073 43 22.5002C43 20.8929 42.992 19.6375 42.9759 18.7335ZM29.9945 23.8563L17.7089 31.8918C17.4849 32.0591 17.2127 32.1428 16.8929 32.1428C16.6531 32.1428 16.4051 32.0756 16.1492 31.9417C15.6214 31.6407 15.3576 31.1718 15.3576 30.5358V14.4648C15.3576 13.829 15.6215 13.36 16.1492 13.0587C16.6933 12.757 17.213 12.7739 17.7089 13.109L29.9946 21.1445C30.4743 21.4286 30.7142 21.8809 30.7142 22.5003C30.7142 23.1195 30.4742 23.572 29.9945 23.8563Z" fill="black"/>
</svg>
